<svg id="svg" version="1.1" xmlns="http://www.w3.org/2000/svg" xmlns:xlink="http://www.w3.org/1999/xlink" width="400" height="400" viewBox="0, 0, 400,400"><g id="svgg"><path id="path0" d="M-0.000 121.798 L 0.000 243.600 63.100 243.581 C 133.266 243.560,135.160 243.503,148.170 240.989 C 154.530 239.760,156.447 239.210,157.130 238.416 C 157.421 238.077,157.545 238.025,157.406 238.300 C 157.105 238.895,157.841 238.981,158.204 238.393 C 158.342 238.170,158.598 238.075,158.772 238.183 C 159.196 238.445,168.105 235.277,168.432 234.748 C 168.574 234.519,168.808 234.357,168.953 234.389 C 169.593 234.527,171.934 233.417,171.723 233.075 C 171.594 232.867,171.739 232.784,172.044 232.892 C 172.624 233.096,177.218 230.981,177.645 230.314 C 177.779 230.104,177.959 229.981,178.045 230.041 C 178.361 230.264,181.993 227.912,181.804 227.607 C 181.697 227.433,181.917 227.315,182.295 227.345 C 182.672 227.375,182.985 227.130,182.990 226.801 C 182.996 226.471,183.270 226.200,183.600 226.199 C 184.588 226.195,186.043 225.193,185.749 224.718 C 185.599 224.475,185.655 224.387,185.873 224.522 C 186.392 224.843,189.310 221.852,188.908 221.411 C 188.739 221.225,188.897 221.179,189.260 221.308 C 189.720 221.473,190.761 220.675,192.704 218.672 C 194.236 217.092,195.573 215.800,195.677 215.800 C 195.780 215.800,197.200 214.554,198.832 213.031 C 200.465 211.508,201.547 210.410,201.238 210.593 C 200.856 210.818,200.769 210.774,200.966 210.455 C 201.125 210.198,201.397 210.074,201.569 210.181 C 201.742 210.288,202.301 209.931,202.812 209.388 C 203.322 208.844,203.596 208.400,203.421 208.400 C 203.245 208.400,203.324 208.132,203.596 207.804 C 203.868 207.477,204.235 207.298,204.411 207.407 C 204.708 207.590,217.822 195.711,224.134 189.541 C 225.638 188.072,226.912 186.898,226.964 186.934 C 227.276 187.149,237.535 177.018,237.334 176.693 C 237.199 176.475,237.339 176.383,237.644 176.489 C 238.240 176.696,243.876 171.655,243.690 171.081 C 243.630 170.894,243.734 170.836,243.922 170.952 C 244.337 171.208,248.519 167.052,248.184 166.717 C 248.053 166.587,248.274 166.507,248.673 166.540 C 249.129 166.578,249.350 166.376,249.267 166.000 C 249.193 165.670,249.267 165.533,249.430 165.697 C 249.820 166.086,250.858 165.217,250.566 164.745 C 250.442 164.544,250.493 164.430,250.679 164.490 C 251.222 164.666,257.204 159.453,258.800 157.413 C 259.272 156.810,259.280 156.719,258.838 156.985 C 258.452 157.218,258.368 157.176,258.568 156.851 C 258.729 156.591,259.162 156.429,259.530 156.489 C 259.913 156.553,260.153 156.373,260.090 156.070 C 260.030 155.779,260.144 155.642,260.344 155.766 C 260.782 156.036,264.645 152.116,264.494 151.555 C 264.435 151.339,264.705 151.216,265.094 151.281 C 265.510 151.351,265.755 151.183,265.690 150.870 C 265.630 150.579,265.731 150.434,265.915 150.548 C 266.100 150.662,267.252 149.820,268.475 148.677 C 269.699 147.535,271.625 145.823,272.756 144.872 C 273.901 143.911,274.694 142.952,274.545 142.710 C 274.393 142.465,274.461 142.390,274.702 142.539 C 274.936 142.684,275.593 142.248,276.164 141.570 C 276.734 140.893,277.200 140.470,277.200 140.630 C 277.200 140.790,278.537 139.596,280.171 137.976 C 281.805 136.355,283.037 134.860,282.909 134.653 C 282.781 134.446,282.887 134.406,283.144 134.565 C 283.425 134.739,284.643 133.837,286.206 132.298 C 287.632 130.891,288.800 129.836,288.800 129.952 C 288.800 130.068,289.513 129.467,290.383 128.616 C 291.254 127.766,291.857 126.891,291.722 126.673 C 291.587 126.455,291.672 126.397,291.910 126.545 C 292.553 126.942,303.085 117.068,302.869 116.270 C 302.820 116.089,302.965 116.055,303.190 116.194 C 303.416 116.333,303.600 116.257,303.600 116.024 C 303.600 115.791,303.750 115.645,303.934 115.700 C 304.508 115.872,319.218 101.953,318.940 101.502 C 318.788 101.257,318.865 101.193,319.122 101.352 C 319.561 101.623,322.575 98.994,328.200 93.431 C 329.740 91.908,330.550 91.008,330.000 91.431 L 329.000 92.200 329.753 91.309 C 330.168 90.820,330.680 90.526,330.892 90.657 C 331.401 90.972,335.234 87.179,334.920 86.671 C 334.783 86.450,334.880 86.402,335.141 86.564 C 335.401 86.724,335.711 86.575,335.846 86.225 C 335.978 85.881,336.270 85.600,336.496 85.600 C 337.219 85.600,346.807 76.335,346.537 75.898 C 346.377 75.640,346.470 75.596,346.776 75.785 C 347.380 76.158,351.288 72.466,350.920 71.871 C 350.786 71.654,350.864 71.592,351.093 71.734 C 351.611 72.054,352.502 71.047,352.097 70.599 C 351.933 70.419,352.042 70.412,352.337 70.583 C 352.978 70.953,356.500 67.686,356.121 67.072 C 355.986 66.854,356.064 66.792,356.293 66.934 C 356.792 67.242,357.716 66.249,357.309 65.842 C 357.152 65.686,357.300 65.664,357.638 65.793 C 358.043 65.949,359.022 65.220,360.526 63.644 C 361.776 62.332,362.800 61.342,362.800 61.443 C 362.800 61.544,366.895 57.820,371.900 53.167 C 376.905 48.514,380.955 44.548,380.900 44.354 C 380.845 44.159,380.955 44.045,381.144 44.100 C 381.333 44.155,383.916 41.974,386.885 39.253 L 392.282 34.305 391.532 32.753 C 391.119 31.899,390.516 31.200,390.191 31.200 C 389.866 31.200,389.600 31.020,389.600 30.800 C 389.600 30.580,389.319 30.400,388.976 30.400 C 388.607 30.400,388.469 30.212,388.638 29.938 C 388.816 29.650,388.748 29.585,388.455 29.766 C 388.198 29.925,388.098 30.235,388.234 30.454 C 388.372 30.678,388.155 30.798,387.740 30.727 C 387.252 30.643,387.045 30.805,387.133 31.200 C 387.207 31.530,387.137 31.670,386.978 31.512 C 386.612 31.145,384.322 32.750,384.591 33.185 C 384.701 33.364,384.478 33.485,384.096 33.455 C 383.713 33.425,383.435 33.595,383.478 33.833 C 383.521 34.072,383.330 34.267,383.053 34.267 C 382.312 34.267,374.779 40.443,375.029 40.846 C 375.146 41.036,374.984 41.092,374.669 40.971 C 374.341 40.845,373.746 41.197,373.274 41.796 C 372.822 42.371,372.384 42.787,372.301 42.721 C 372.059 42.529,366.800 46.901,366.800 47.293 C 366.800 47.488,366.634 47.545,366.432 47.420 C 366.230 47.295,365.673 47.689,365.196 48.296 C 364.718 48.903,364.271 49.310,364.201 49.200 C 364.083 49.013,362.719 50.052,355.903 55.522 C 354.420 56.712,353.304 57.845,353.424 58.038 C 353.544 58.232,353.398 58.297,353.101 58.183 C 352.803 58.069,351.805 58.672,350.882 59.524 C 349.960 60.375,349.135 61.001,349.048 60.915 C 348.962 60.829,348.511 61.242,348.046 61.833 C 347.581 62.424,347.200 62.772,347.200 62.605 C 347.200 62.439,346.255 63.093,345.100 64.060 C 343.945 65.026,341.967 66.598,340.704 67.554 C 339.442 68.509,338.525 69.478,338.666 69.707 C 338.818 69.952,338.729 70.004,338.452 69.832 C 338.173 69.660,337.409 70.111,336.590 70.930 C 335.825 71.695,335.200 72.226,335.200 72.111 C 335.200 71.996,334.932 72.124,334.604 72.396 C 334.277 72.668,334.106 73.048,334.225 73.241 C 334.344 73.433,334.196 73.497,333.896 73.381 C 333.376 73.182,332.202 74.147,331.929 75.000 C 331.858 75.220,331.654 75.351,331.477 75.292 C 331.161 75.187,324.000 80.723,324.000 81.072 C 324.000 81.168,324.208 81.119,324.462 80.962 C 324.755 80.781,324.815 80.853,324.625 81.159 C 324.461 81.425,324.118 81.570,323.863 81.483 C 323.609 81.395,321.931 82.511,320.136 83.962 C 318.340 85.413,315.413 87.739,313.632 89.132 C 311.850 90.524,310.493 91.827,310.617 92.027 C 310.740 92.227,310.587 92.293,310.275 92.173 C 309.944 92.046,309.246 92.505,308.596 93.278 C 307.984 94.005,307.439 94.510,307.384 94.400 C 307.306 94.243,300.460 99.520,299.600 100.400 C 299.490 100.512,298.410 101.342,297.200 102.244 C 295.990 103.145,294.406 104.440,293.680 105.120 C 292.954 105.801,292.234 106.377,292.080 106.401 C 291.561 106.480,267.976 125.402,267.555 126.076 C 267.421 126.292,267.151 126.471,266.955 126.474 C 266.760 126.477,266.649 126.655,266.710 126.870 C 266.770 127.084,266.660 127.161,266.465 127.040 C 266.270 126.920,265.366 127.509,264.455 128.349 C 263.545 129.189,262.800 129.793,262.800 129.690 C 262.800 129.586,262.532 129.724,262.204 129.996 C 261.877 130.268,261.710 130.655,261.834 130.855 C 261.958 131.056,261.874 131.170,261.647 131.110 C 261.074 130.958,247.539 141.577,247.789 141.982 C 247.900 142.162,247.678 142.285,247.296 142.255 C 246.911 142.225,246.649 142.437,246.710 142.730 C 246.770 143.021,246.668 143.166,246.483 143.051 C 246.078 142.801,241.600 146.244,241.600 146.806 C 241.600 147.023,241.441 147.155,241.247 147.100 C 240.655 146.932,234.001 152.479,234.271 152.915 C 234.410 153.140,234.338 153.209,234.112 153.069 C 233.525 152.706,230.307 155.126,230.647 155.675 C 230.804 155.930,230.745 156.013,230.508 155.867 C 229.920 155.503,225.934 158.761,226.262 159.335 C 226.409 159.591,226.386 159.671,226.212 159.514 C 225.531 158.900,219.789 163.336,220.266 164.107 C 220.413 164.345,220.331 164.405,220.075 164.246 C 219.586 163.944,215.011 167.467,214.982 168.169 C 214.972 168.406,214.728 168.549,214.440 168.486 C 213.705 168.326,212.756 169.198,213.069 169.745 C 213.211 169.995,213.186 170.071,213.012 169.914 C 212.543 169.491,211.132 170.366,211.451 170.882 C 211.605 171.131,211.542 171.212,211.307 171.066 C 211.078 170.925,210.670 171.075,210.400 171.400 C 209.531 172.448,209.200 171.623,209.200 168.405 C 209.200 162.622,206.894 150.847,205.884 151.472 C 205.660 151.610,205.597 151.528,205.745 151.289 C 206.542 150.000,199.411 136.400,197.939 136.400 C 197.727 136.400,197.643 136.253,197.754 136.074 C 198.025 135.637,188.462 125.914,188.026 126.184 C 187.838 126.300,187.573 126.108,187.439 125.756 C 187.294 125.380,186.939 125.215,186.576 125.354 C 186.236 125.484,186.060 125.427,186.184 125.226 C 186.454 124.789,184.221 123.113,183.855 123.478 C 183.715 123.619,183.600 123.541,183.600 123.305 C 183.600 122.646,176.796 118.863,171.500 116.577 C 167.344 114.783,167.395 114.938,170.415 113.279 C 171.738 112.552,172.734 111.817,172.628 111.645 C 172.522 111.474,172.666 111.333,172.949 111.333 C 174.128 111.333,182.330 104.656,182.090 103.891 C 182.030 103.698,182.144 103.642,182.345 103.766 C 183.077 104.219,189.870 95.960,189.396 95.193 C 189.255 94.966,189.289 94.830,189.470 94.890 C 189.652 94.951,189.845 94.865,189.900 94.700 C 189.955 94.535,190.315 94.078,190.700 93.685 C 191.323 93.049,194.045 87.896,194.865 85.800 C 196.432 81.795,196.720 80.779,196.512 79.986 C 196.359 79.398,196.424 79.168,196.697 79.337 C 196.957 79.497,197.298 78.788,197.581 77.499 C 197.834 76.345,198.257 74.590,198.520 73.600 C 198.835 72.420,199.000 68.217,199.000 61.400 C 199.000 51.555,198.811 49.377,197.697 46.400 C 197.574 46.070,197.504 45.657,197.542 45.482 C 197.766 44.458,193.887 34.150,193.322 34.266 C 193.145 34.303,192.976 33.937,192.948 33.453 C 192.844 31.713,185.867 21.788,185.086 22.270 C 184.861 22.410,184.790 22.340,184.929 22.115 C 185.068 21.891,184.825 21.385,184.391 20.991 C 183.956 20.598,183.600 20.421,183.600 20.598 C 183.600 20.775,183.054 20.166,182.386 19.245 C 181.719 18.323,181.013 17.669,180.817 17.790 C 180.621 17.911,180.402 17.764,180.330 17.463 C 179.770 15.110,162.556 4.501,160.300 5.118 C 160.135 5.163,160.000 5.046,160.000 4.859 C 160.000 4.357,153.282 2.302,152.739 2.638 C 152.477 2.799,152.384 2.750,152.524 2.523 C 152.671 2.285,150.953 1.691,148.286 1.056 L 143.800 -0.010 71.900 -0.007 L -0.000 -0.004 -0.000 121.798 M108.981 56.431 C 108.803 56.718,109.141 56.794,109.995 56.660 C 110.699 56.549,111.159 56.574,111.018 56.716 C 110.695 57.038,116.411 58.050,117.121 57.795 C 117.407 57.693,117.543 57.768,117.424 57.962 C 117.143 58.416,119.084 58.912,119.718 58.548 C 119.983 58.396,120.066 58.419,119.903 58.599 C 119.740 58.780,120.581 59.418,121.771 60.019 C 125.615 61.958,130.600 67.273,130.095 68.894 C 130.037 69.080,130.186 69.600,130.427 70.050 C 131.911 72.823,130.637 81.203,128.190 84.760 C 127.451 85.834,126.971 86.852,127.123 87.021 C 127.275 87.190,127.211 87.221,126.980 87.090 C 126.749 86.959,125.809 87.446,124.891 88.173 C 123.972 88.900,122.679 89.719,122.016 89.994 C 121.353 90.268,120.926 90.680,121.067 90.908 C 121.208 91.137,121.145 91.214,120.928 91.079 C 120.419 90.764,117.600 91.621,117.600 92.091 C 117.600 92.287,117.465 92.366,117.300 92.266 C 117.135 92.166,115.290 92.420,113.200 92.830 C 109.772 93.503,107.197 93.577,86.908 93.588 L 64.416 93.600 64.308 75.003 L 64.200 56.406 86.600 56.300 C 98.920 56.241,109.056 56.150,109.124 56.097 C 109.192 56.043,109.127 56.194,108.981 56.431 M121.600 146.466 C 123.030 146.719,124.605 146.942,125.100 146.963 C 125.595 146.983,126.000 147.107,126.000 147.237 C 126.000 147.367,126.765 147.699,127.700 147.975 C 130.214 148.717,133.708 150.671,135.459 152.313 C 136.306 153.108,137.180 153.708,137.400 153.646 C 137.620 153.584,137.675 153.658,137.522 153.811 C 137.369 153.964,137.757 155.014,138.384 156.145 C 139.011 157.275,139.641 158.830,139.783 159.600 C 139.926 160.370,140.239 161.823,140.479 162.828 C 141.256 166.091,139.121 174.239,137.036 175.970 C 136.691 176.257,136.507 176.650,136.628 176.845 C 136.749 177.040,136.646 177.200,136.400 177.200 C 136.154 177.200,136.081 177.408,136.238 177.662 C 136.406 177.933,136.349 178.016,136.100 177.862 C 135.600 177.553,132.313 180.180,132.707 180.574 C 132.855 180.721,132.680 180.729,132.318 180.590 C 131.888 180.425,131.506 180.629,131.211 181.180 C 130.963 181.643,130.617 181.934,130.442 181.826 C 130.267 181.718,129.151 182.003,127.962 182.459 C 125.583 183.371,121.219 184.288,117.200 184.720 C 115.770 184.874,103.350 184.910,89.600 184.800 L 64.600 184.600 64.496 165.300 L 64.392 146.000 91.696 146.003 C 110.482 146.005,119.811 146.150,121.600 146.466 M269.241 159.188 C 267.500 160.722,265.699 162.456,265.238 163.042 C 264.777 163.628,264.400 163.956,264.400 163.771 C 264.400 163.585,263.598 164.221,262.617 165.183 C 261.637 166.145,260.930 167.087,261.047 167.276 C 261.164 167.465,261.021 167.570,260.730 167.510 C 260.438 167.449,260.249 167.638,260.310 167.930 C 260.370 168.221,260.234 168.345,260.007 168.204 C 259.477 167.877,250.359 176.410,250.682 176.932 C 250.815 177.147,250.740 177.210,250.515 177.071 C 250.291 176.932,249.768 177.206,249.353 177.678 C 248.939 178.151,248.853 178.389,249.162 178.207 C 249.553 177.977,249.632 178.025,249.421 178.365 C 249.255 178.634,248.891 178.767,248.613 178.660 C 247.975 178.416,243.869 182.525,244.290 182.987 C 244.460 183.175,244.371 183.196,244.091 183.035 C 243.467 182.675,237.902 187.918,238.272 188.517 C 238.423 188.761,238.323 188.799,238.023 188.614 C 237.476 188.276,233.094 192.305,233.425 192.840 C 233.528 193.008,233.402 193.275,233.145 193.434 C 232.824 193.632,232.783 193.546,233.015 193.162 C 233.303 192.684,233.252 192.682,232.681 193.145 C 232.311 193.445,232.126 193.881,232.270 194.113 C 232.425 194.364,232.295 194.445,231.951 194.313 C 231.583 194.172,229.643 195.733,226.635 198.592 C 224.030 201.067,221.786 203.162,221.649 203.246 C 221.512 203.331,221.460 203.580,221.533 203.800 C 221.607 204.020,221.527 204.060,221.356 203.890 C 220.942 203.475,216.768 207.624,217.084 208.136 C 217.228 208.369,217.069 208.435,216.705 208.296 C 216.279 208.132,215.231 208.932,213.439 210.789 C 211.988 212.292,210.800 213.434,210.800 213.326 C 210.800 213.217,208.554 215.238,205.808 217.816 C 203.063 220.394,200.921 222.672,201.048 222.878 C 201.176 223.085,200.947 223.196,200.540 223.127 C 200.113 223.054,199.842 223.211,199.900 223.500 C 199.955 223.775,199.775 223.955,199.500 223.900 C 199.225 223.845,199.049 224.038,199.110 224.330 C 199.170 224.621,199.056 224.758,198.857 224.635 C 198.406 224.357,195.358 227.474,195.513 228.054 C 195.574 228.285,195.394 228.394,195.113 228.295 C 194.831 228.196,193.160 229.487,191.400 231.164 C 189.640 232.841,186.265 235.897,183.900 237.956 C 181.226 240.283,179.600 241.990,179.600 242.467 C 179.600 242.905,179.367 243.185,179.057 243.118 C 178.367 242.968,171.182 249.647,171.492 250.149 C 171.619 250.355,171.516 250.395,171.262 250.238 C 171.008 250.081,170.800 250.143,170.800 250.376 C 170.800 250.609,170.560 250.800,170.268 250.800 C 169.975 250.800,169.494 251.250,169.200 251.799 C 168.906 252.349,168.577 252.711,168.470 252.603 C 168.124 252.257,167.199 253.275,167.466 253.707 C 167.608 253.936,167.541 254.011,167.318 253.873 C 166.802 253.554,161.917 257.942,162.228 258.445 C 162.355 258.651,162.221 258.770,161.930 258.710 C 161.638 258.649,161.449 258.838,161.510 259.130 C 161.573 259.434,161.428 259.541,161.170 259.381 C 160.598 259.028,155.549 263.982,155.883 264.569 C 156.018 264.806,155.983 264.868,155.805 264.707 C 155.627 264.546,155.162 264.783,154.771 265.234 C 154.380 265.684,153.963 266.047,153.844 266.041 C 153.725 266.035,152.781 266.788,151.746 267.715 C 147.026 271.941,145.232 273.729,145.415 274.025 C 145.524 274.201,145.402 274.475,145.145 274.634 C 144.852 274.815,144.784 274.750,144.962 274.462 C 145.119 274.208,145.095 274.000,144.910 274.000 C 144.281 274.000,140.377 278.244,140.690 278.587 C 140.860 278.775,140.775 278.799,140.500 278.641 C 140.225 278.482,140.000 278.543,140.000 278.776 C 140.000 279.009,139.858 279.155,139.685 279.100 C 139.177 278.939,124.383 292.849,124.633 293.253 C 124.757 293.455,124.621 293.570,124.330 293.510 C 124.038 293.449,123.852 293.647,123.916 293.949 C 123.989 294.294,123.809 294.412,123.429 294.267 C 123.097 294.139,122.721 294.204,122.593 294.411 C 122.466 294.617,119.895 297.077,116.881 299.877 C 113.866 302.677,111.445 305.111,111.500 305.284 C 111.555 305.458,111.441 305.555,111.246 305.500 C 110.655 305.333,101.975 313.635,102.259 314.096 C 102.416 314.349,102.335 314.407,102.062 314.238 C 101.808 314.081,101.600 314.154,101.600 314.400 C 101.600 314.646,101.451 314.755,101.268 314.642 C 100.801 314.354,96.711 318.577,97.090 318.956 C 97.260 319.127,97.130 319.207,96.800 319.133 C 96.468 319.060,96.249 319.236,96.310 319.530 C 96.372 319.831,96.228 319.941,95.974 319.784 C 95.421 319.442,92.340 322.380,92.678 322.927 C 92.813 323.145,92.736 323.208,92.507 323.066 C 91.989 322.746,91.098 323.753,91.503 324.201 C 91.667 324.381,91.558 324.388,91.262 324.217 C 90.604 323.836,86.711 327.515,87.082 328.167 C 87.217 328.405,87.185 328.470,87.009 328.312 C 86.552 327.899,84.338 329.575,84.657 330.092 C 84.804 330.330,84.746 330.414,84.528 330.279 C 84.020 329.965,80.680 333.346,81.091 333.758 C 81.261 333.928,81.130 334.007,80.800 333.933 C 80.468 333.860,80.249 334.036,80.310 334.330 C 80.373 334.633,80.228 334.741,79.971 334.582 C 79.412 334.236,75.141 338.381,75.484 338.936 C 75.629 339.170,75.467 339.235,75.095 339.092 C 74.382 338.818,73.443 339.693,73.903 340.201 C 74.067 340.381,74.013 340.422,73.784 340.292 C 73.555 340.163,71.258 342.069,68.678 344.528 C 66.099 346.988,63.991 348.924,63.994 348.831 C 63.997 348.737,62.522 350.087,60.715 351.831 C 58.908 353.574,57.473 355.148,57.525 355.330 C 57.577 355.511,57.458 355.560,57.261 355.437 C 57.063 355.315,55.973 356.197,54.839 357.396 C 53.704 358.596,52.706 359.537,52.620 359.489 C 52.255 359.281,50.447 361.353,50.674 361.720 C 50.811 361.942,50.746 362.014,50.530 361.880 C 50.313 361.746,49.161 362.660,47.968 363.910 C 46.776 365.160,46.319 365.737,46.954 365.191 C 47.967 364.322,48.056 364.301,47.682 365.021 C 47.024 366.291,48.907 368.550,50.353 368.224 C 51.353 367.998,51.365 368.015,50.624 368.594 C 50.196 368.927,50.016 369.199,50.224 369.197 C 51.050 369.190,57.625 363.964,57.356 363.529 C 57.180 363.243,57.256 363.188,57.563 363.377 C 58.159 363.746,59.683 362.457,59.329 361.885 C 59.185 361.652,59.273 361.598,59.536 361.760 C 60.271 362.215,66.958 356.978,66.528 356.284 C 66.383 356.050,66.474 355.999,66.742 356.164 C 67.223 356.461,77.200 348.966,77.200 348.307 C 77.200 348.112,77.366 348.055,77.568 348.180 C 77.770 348.305,78.310 347.932,78.768 347.350 C 79.226 346.768,79.600 346.413,79.600 346.562 C 79.600 346.710,81.035 345.719,82.789 344.360 C 84.543 343.000,85.865 341.705,85.727 341.482 C 85.589 341.259,85.664 341.192,85.893 341.334 C 86.122 341.475,87.394 340.738,88.719 339.696 C 90.044 338.653,92.586 336.661,94.368 335.268 C 96.207 333.832,97.493 332.551,97.342 332.307 C 97.186 332.054,97.264 331.992,97.530 332.157 C 98.105 332.512,100.452 330.808,100.122 330.275 C 99.987 330.056,100.059 329.989,100.282 330.127 C 100.713 330.393,105.455 326.903,105.322 326.418 C 105.279 326.261,105.469 326.133,105.744 326.133 C 106.569 326.133,120.802 314.728,120.529 314.285 C 120.390 314.060,120.462 313.991,120.688 314.131 C 120.915 314.271,121.878 313.822,122.829 313.133 C 125.459 311.228,128.984 308.324,129.134 307.939 C 129.208 307.750,129.419 307.688,129.602 307.801 C 129.786 307.915,130.286 307.562,130.715 307.017 C 131.143 306.473,131.587 306.121,131.701 306.235 C 131.815 306.349,132.278 305.973,132.728 305.400 C 133.179 304.828,133.694 304.337,133.874 304.311 C 134.288 304.249,138.576 300.941,140.068 299.531 C 140.691 298.943,141.200 298.544,141.200 298.645 C 141.200 298.747,143.025 297.428,145.254 295.715 C 147.484 294.002,149.779 292.245,150.354 291.812 C 150.930 291.378,153.677 289.189,156.460 286.947 C 159.244 284.705,161.904 282.666,162.372 282.415 C 162.840 282.165,163.114 281.784,162.981 281.570 C 162.849 281.356,162.889 281.224,163.070 281.278 C 163.664 281.454,166.793 279.113,166.532 278.689 C 166.384 278.451,166.471 278.397,166.737 278.561 C 167.255 278.881,171.864 275.299,171.690 274.712 C 171.630 274.508,171.744 274.442,171.944 274.565 C 172.354 274.819,176.400 271.733,176.400 271.166 C 176.400 270.965,176.535 270.841,176.700 270.891 C 177.250 271.057,181.982 267.095,181.727 266.682 C 181.587 266.455,181.674 266.398,181.925 266.554 C 182.669 267.014,196.224 256.389,195.674 255.777 C 195.523 255.609,195.619 255.598,195.887 255.751 C 196.424 256.060,201.070 252.481,200.890 251.897 C 200.830 251.701,200.954 251.648,201.166 251.779 C 201.377 251.910,201.713 251.727,201.911 251.373 C 202.110 251.018,202.436 250.723,202.636 250.717 C 203.381 250.694,206.365 248.268,206.126 247.879 C 205.989 247.658,206.067 247.594,206.300 247.738 C 206.823 248.062,210.070 245.416,209.681 244.983 C 209.526 244.812,209.610 244.792,209.866 244.939 C 210.123 245.085,210.843 244.776,211.466 244.251 L 212.600 243.297 212.498 321.105 C 212.423 378.388,212.515 399.057,212.847 399.457 C 213.220 399.907,219.130 400.000,247.249 400.000 L 281.200 400.000 281.200 358.000 L 281.200 316.000 335.200 316.000 C 388.667 316.000,389.208 315.992,390.000 315.200 C 391.172 314.028,391.268 258.672,390.100 257.714 C 389.669 257.361,389.631 257.251,390.000 257.427 C 390.425 257.629,390.392 257.492,389.886 256.956 C 389.193 256.223,387.542 256.197,335.186 256.096 L 281.200 255.991 281.200 237.996 L 281.200 220.000 340.300 219.953 C 372.805 219.927,399.535 219.927,399.700 219.953 C 399.865 219.979,400.000 205.690,400.000 188.200 L 400.000 156.400 336.203 156.400 L 272.405 156.400 269.241 159.188 " stroke="none" fill="#fcfcfc" fill-rule="evenodd"></path><path id="path1" d="M182.413 19.071 C 182.435 19.634,183.600 20.985,183.600 20.448 C 183.600 20.170,183.330 19.673,183.000 19.343 C 182.670 19.013,182.406 18.891,182.413 19.071 M395.747 24.007 C 394.838 24.652,393.984 25.465,393.850 25.815 C 393.715 26.165,393.437 26.346,393.230 26.219 C 393.024 26.091,392.601 26.348,392.291 26.791 C 391.982 27.233,391.630 27.497,391.510 27.376 C 391.390 27.256,390.935 27.611,390.499 28.165 C 390.063 28.719,389.607 29.074,389.486 28.952 C 389.364 28.831,389.061 29.112,388.812 29.577 C 388.563 30.042,388.189 30.317,387.980 30.188 C 387.771 30.058,387.600 30.147,387.600 30.384 C 387.600 30.644,387.997 30.716,388.600 30.564 C 389.216 30.410,389.600 30.483,389.600 30.757 C 389.600 31.000,389.879 31.200,390.220 31.200 C 390.562 31.200,391.104 31.830,391.426 32.600 C 392.173 34.388,392.067 34.420,394.785 31.615 C 396.057 30.304,397.186 29.320,397.295 29.429 C 397.984 30.118,400.000 26.657,400.000 24.786 C 400.000 22.308,398.526 22.038,395.747 24.007 M47.000 365.200 C 46.602 365.640,46.067 366.000,45.811 366.000 C 45.146 366.000,40.163 371.334,39.904 372.322 C 39.101 375.396,43.316 375.296,46.600 372.163 C 47.260 371.534,47.942 371.014,48.115 371.009 C 48.288 371.004,48.596 370.730,48.800 370.400 C 49.004 370.070,49.402 369.792,49.685 369.782 C 49.968 369.772,50.155 369.547,50.100 369.282 C 50.008 368.838,50.520 368.622,51.330 368.763 C 51.511 368.794,51.545 368.635,51.405 368.408 C 51.265 368.182,50.736 368.101,50.228 368.229 C 48.980 368.542,47.052 366.225,47.642 365.121 C 48.148 364.176,47.899 364.207,47.000 365.200 " stroke="none" fill="#ffffff" fill-rule="evenodd"></path></g></svg>