<svg id="svg" version="1.1" xmlns="http://www.w3.org/2000/svg" xmlns:xlink="http://www.w3.org/1999/xlink" width="400" height="400" viewBox="0, 0, 400,400"><g id="svgg"><path id="path0" d="M0.000 121.000 L 0.000 242.000 64.800 242.000 C 100.440 242.000,129.600 241.848,129.600 241.662 C 129.600 241.475,132.338 241.199,135.684 241.048 C 139.031 240.897,141.866 240.621,141.984 240.435 C 142.103 240.248,143.685 239.965,145.500 239.806 C 147.315 239.647,148.800 239.381,148.800 239.216 C 148.800 239.051,150.002 238.803,151.471 238.666 C 152.940 238.529,154.249 238.245,154.379 238.034 C 154.509 237.824,155.557 237.527,156.708 237.375 C 157.858 237.222,158.800 236.951,158.800 236.773 C 158.800 236.595,159.655 236.323,160.700 236.169 C 161.745 236.015,162.709 235.720,162.842 235.514 C 162.976 235.308,163.831 235.039,164.742 234.917 C 165.654 234.795,166.400 234.538,166.400 234.347 C 166.400 234.156,166.670 234.000,167.000 234.000 C 167.330 234.000,167.600 233.744,167.600 233.432 C 167.600 233.119,168.140 232.745,168.800 232.600 C 169.460 232.455,170.000 232.171,170.000 231.968 C 170.000 231.766,170.437 231.600,170.971 231.600 C 171.506 231.600,172.204 231.339,172.523 231.020 C 172.842 230.701,173.575 230.321,174.152 230.176 C 174.728 230.032,175.200 229.767,175.200 229.588 C 175.200 229.410,175.740 229.145,176.400 229.000 C 177.060 228.855,177.600 228.598,177.600 228.429 C 177.600 228.260,178.275 227.830,179.100 227.474 C 180.709 226.780,181.839 226.100,182.712 225.300 C 183.012 225.025,183.424 224.800,183.629 224.800 C 183.834 224.800,184.700 224.080,185.554 223.200 C 186.408 222.320,187.245 221.600,187.413 221.600 C 187.857 221.600,192.000 217.256,192.000 216.791 C 192.000 216.576,192.176 216.400,192.392 216.400 C 192.608 216.400,194.113 215.050,195.736 213.400 C 197.359 211.750,198.808 210.400,198.955 210.400 C 199.229 210.400,201.254 208.645,203.224 206.700 C 203.837 206.095,204.470 205.600,204.630 205.600 C 204.791 205.600,205.976 204.520,207.263 203.200 C 208.551 201.880,209.783 200.800,210.002 200.800 C 210.221 200.800,210.400 200.600,210.400 200.357 C 210.400 199.881,214.529 195.600,214.989 195.600 C 215.140 195.600,216.344 194.520,217.664 193.200 C 218.984 191.880,220.257 190.800,220.493 190.800 C 220.729 190.800,221.976 189.720,223.263 188.400 C 224.551 187.080,225.752 186.000,225.932 186.000 C 226.336 186.000,228.000 184.264,228.000 183.843 C 228.000 183.457,230.241 181.200,230.625 181.200 C 230.783 181.200,232.241 179.850,233.864 178.200 C 235.487 176.550,236.974 175.200,237.167 175.200 C 237.361 175.200,238.438 174.300,239.561 173.200 C 240.685 172.100,241.753 171.200,241.936 171.200 C 242.403 171.200,245.793 167.546,246.111 166.700 C 246.256 166.315,246.579 166.000,246.829 166.000 C 247.078 166.000,248.530 164.740,250.055 163.200 C 251.580 161.660,252.987 160.400,253.182 160.400 C 253.377 160.400,254.616 159.320,255.936 158.000 C 257.256 156.680,258.485 155.594,258.668 155.588 C 258.851 155.581,259.990 154.591,261.200 153.388 C 262.410 152.185,263.625 151.200,263.900 151.200 C 264.175 151.200,264.400 150.944,264.400 150.632 C 264.400 149.892,267.892 146.400,268.632 146.400 C 268.944 146.400,269.200 146.130,269.200 145.800 C 269.200 145.470,269.379 145.200,269.598 145.200 C 269.817 145.200,271.049 144.120,272.337 142.800 C 273.624 141.480,274.816 140.400,274.986 140.400 C 275.155 140.400,275.985 139.688,276.830 138.817 C 277.675 137.946,279.088 136.756,279.971 136.172 C 280.853 135.588,281.691 134.743,281.834 134.293 C 282.107 133.433,283.884 131.600,284.445 131.600 C 284.625 131.600,286.020 130.340,287.545 128.800 C 289.070 127.260,290.451 126.000,290.615 126.000 C 290.778 126.000,292.241 124.650,293.864 123.000 C 295.487 121.350,296.960 120.000,297.136 120.000 C 297.732 120.000,299.893 117.805,300.168 116.920 C 300.318 116.437,300.807 115.925,301.255 115.782 C 301.703 115.640,303.107 114.461,304.374 113.162 C 305.641 111.863,306.814 110.800,306.980 110.800 C 307.146 110.800,308.530 109.540,310.055 108.000 C 311.580 106.460,312.991 105.200,313.191 105.200 C 313.392 105.200,314.442 104.300,315.524 103.200 C 316.607 102.100,317.697 101.200,317.947 101.200 C 318.196 101.200,318.400 101.000,318.400 100.757 C 318.400 100.273,322.533 96.000,323.000 96.000 C 323.158 96.000,324.261 95.010,325.452 93.800 C 326.643 92.590,327.793 91.600,328.008 91.600 C 328.224 91.600,328.400 91.342,328.400 91.027 C 328.400 90.712,328.772 90.336,329.226 90.192 C 329.681 90.047,331.011 88.955,332.183 87.765 C 333.355 86.574,334.473 85.600,334.668 85.600 C 335.113 85.600,336.035 84.507,336.744 83.138 C 337.043 82.561,337.718 81.858,338.244 81.576 C 338.770 81.295,339.200 80.915,339.200 80.732 C 339.200 80.550,339.402 80.400,339.650 80.400 C 339.897 80.400,341.258 79.230,342.674 77.800 C 344.090 76.370,345.414 75.200,345.616 75.200 C 345.818 75.200,346.957 74.210,348.148 73.000 C 349.339 71.790,350.454 70.800,350.625 70.800 C 351.162 70.800,354.400 67.215,354.400 66.620 C 354.400 66.309,354.768 65.937,355.218 65.794 C 355.668 65.651,357.115 64.469,358.433 63.167 C 359.751 61.865,360.989 60.800,361.183 60.800 C 361.377 60.800,362.885 59.450,364.535 57.800 C 366.185 56.150,367.671 54.800,367.836 54.800 C 368.002 54.800,368.913 53.990,369.862 53.000 C 370.810 52.010,371.770 51.200,371.993 51.200 C 372.217 51.200,372.400 50.998,372.400 50.750 C 372.400 50.212,377.390 45.200,377.926 45.200 C 378.131 45.200,379.481 44.030,380.926 42.600 C 382.370 41.170,383.680 40.000,383.837 40.000 C 383.994 40.000,385.159 38.937,386.426 37.638 C 387.693 36.339,389.105 35.157,389.564 35.011 C 390.023 34.866,390.506 34.316,390.638 33.790 C 390.770 33.263,391.129 32.625,391.435 32.371 C 391.741 32.117,391.880 31.730,391.744 31.510 C 391.609 31.290,391.698 30.987,391.943 30.835 C 392.188 30.684,391.716 30.558,390.894 30.556 C 389.410 30.553,387.200 32.116,387.200 33.169 C 387.200 33.406,386.924 33.600,386.587 33.600 C 386.251 33.600,385.874 33.863,385.750 34.185 C 385.627 34.506,385.155 34.887,384.701 35.032 C 384.247 35.176,383.478 35.723,382.992 36.247 C 382.506 36.771,381.944 37.200,381.743 37.200 C 381.542 37.200,380.925 37.716,380.372 38.347 C 379.818 38.977,378.985 39.614,378.520 39.762 C 378.055 39.910,377.573 40.294,377.450 40.615 C 377.326 40.937,377.028 41.200,376.787 41.200 C 376.546 41.200,375.804 41.695,375.138 42.300 C 374.471 42.905,373.430 43.854,372.825 44.408 C 372.219 44.962,371.245 45.633,370.661 45.899 C 370.078 46.165,369.600 46.567,369.600 46.791 C 369.600 47.016,369.328 47.200,368.996 47.200 C 368.664 47.200,368.084 47.560,367.707 48.000 C 367.330 48.440,366.792 48.800,366.511 48.800 C 366.230 48.800,366.000 48.978,366.000 49.195 C 366.000 49.710,364.722 51.200,364.280 51.200 C 364.092 51.200,363.398 51.740,362.738 52.400 C 362.078 53.060,361.364 53.600,361.150 53.600 C 360.937 53.600,360.345 54.050,359.835 54.600 C 359.325 55.150,358.740 55.600,358.535 55.600 C 358.330 55.600,357.721 56.132,357.181 56.783 C 356.642 57.434,355.969 57.974,355.687 57.983 C 355.406 57.992,355.074 58.263,354.950 58.585 C 354.827 58.906,354.355 59.287,353.901 59.432 C 353.447 59.576,352.678 60.123,352.192 60.647 C 351.706 61.171,351.098 61.600,350.842 61.600 C 350.585 61.600,350.276 61.857,350.155 62.172 C 350.035 62.487,349.410 62.927,348.768 63.151 C 348.126 63.375,347.600 63.728,347.600 63.936 C 347.600 64.143,347.162 64.423,346.627 64.558 C 346.091 64.692,345.534 65.179,345.387 65.640 C 345.051 66.700,343.917 67.846,342.876 68.176 C 342.435 68.316,341.973 68.694,341.850 69.015 C 341.726 69.337,341.415 69.600,341.158 69.600 C 340.902 69.600,340.294 70.029,339.808 70.553 C 339.322 71.077,338.566 71.620,338.126 71.760 C 337.687 71.899,337.089 72.460,336.796 73.007 C 336.504 73.553,336.039 74.000,335.763 74.000 C 335.487 74.000,334.722 74.540,334.062 75.200 C 333.402 75.860,332.662 76.400,332.418 76.400 C 332.174 76.400,331.874 76.663,331.750 76.985 C 331.627 77.306,331.155 77.687,330.701 77.832 C 330.247 77.976,329.478 78.523,328.992 79.047 C 328.506 79.571,327.898 80.000,327.642 80.000 C 327.385 80.000,327.076 80.257,326.955 80.572 C 326.835 80.887,326.210 81.327,325.568 81.551 C 324.926 81.775,324.400 82.161,324.400 82.408 C 324.400 82.939,323.407 84.000,322.910 84.000 C 322.719 84.000,322.121 84.532,321.581 85.183 C 321.042 85.834,320.403 86.374,320.162 86.383 C 319.921 86.392,319.398 86.760,319.000 87.200 C 318.602 87.640,318.115 88.000,317.919 88.000 C 317.722 88.000,317.145 88.450,316.635 89.000 C 316.125 89.550,315.498 90.000,315.242 90.000 C 314.985 90.000,314.674 90.263,314.550 90.585 C 314.427 90.906,313.945 91.290,313.480 91.438 C 313.015 91.586,312.182 92.223,311.628 92.853 C 311.075 93.484,310.458 94.000,310.257 94.000 C 310.056 94.000,309.475 94.450,308.965 95.000 C 308.455 95.550,307.863 96.000,307.650 96.000 C 307.436 96.000,306.753 96.505,306.131 97.123 C 305.509 97.741,304.685 98.365,304.300 98.511 C 303.915 98.656,303.600 99.022,303.600 99.323 C 303.600 99.625,303.195 100.079,302.700 100.333 C 301.097 101.155,300.253 101.779,299.227 102.900 C 298.674 103.505,298.058 104.000,297.857 104.000 C 297.656 104.000,297.075 104.450,296.565 105.000 C 296.055 105.550,295.463 106.000,295.250 106.000 C 295.036 106.000,294.322 106.540,293.662 107.200 C 293.002 107.860,292.262 108.400,292.018 108.400 C 291.774 108.400,291.474 108.663,291.350 108.985 C 291.227 109.306,290.755 109.687,290.301 109.832 C 289.847 109.976,289.098 110.491,288.638 110.977 C 288.177 111.462,287.485 111.976,287.100 112.117 C 286.715 112.259,286.400 112.548,286.400 112.760 C 286.400 112.973,286.012 113.269,285.538 113.420 C 284.495 113.751,282.800 115.508,282.800 116.258 C 282.800 116.556,282.524 116.800,282.187 116.800 C 281.851 116.800,281.474 117.063,281.350 117.385 C 281.227 117.706,280.738 118.087,280.263 118.231 C 279.788 118.374,278.935 118.990,278.366 119.598 C 277.798 120.206,276.943 120.828,276.466 120.979 C 275.990 121.130,275.600 121.427,275.600 121.640 C 275.600 121.852,275.285 122.144,274.900 122.289 C 274.515 122.435,273.691 123.059,273.069 123.677 C 272.447 124.295,271.764 124.800,271.550 124.800 C 271.337 124.800,270.745 125.250,270.235 125.800 C 269.725 126.350,269.144 126.800,268.943 126.800 C 268.742 126.800,268.125 127.316,267.572 127.947 C 267.018 128.577,266.168 129.220,265.683 129.374 C 265.197 129.528,264.800 129.822,264.800 130.027 C 264.800 130.232,264.573 130.400,264.296 130.400 C 264.018 130.400,263.345 130.940,262.800 131.600 C 262.255 132.260,261.582 132.800,261.304 132.800 C 261.027 132.800,260.800 133.076,260.800 133.413 C 260.800 133.749,260.485 134.144,260.100 134.289 C 259.715 134.435,258.891 135.059,258.269 135.677 C 257.647 136.295,256.922 136.800,256.658 136.800 C 256.394 136.800,255.725 137.316,255.172 137.947 C 254.618 138.577,253.768 139.220,253.283 139.374 C 252.797 139.528,252.400 139.827,252.400 140.040 C 252.400 140.252,252.085 140.541,251.700 140.683 C 251.315 140.824,250.623 141.338,250.162 141.823 C 249.702 142.309,248.937 142.830,248.462 142.980 C 247.988 143.131,247.600 143.427,247.600 143.640 C 247.600 143.852,247.289 144.144,246.909 144.290 C 246.529 144.436,245.854 144.939,245.409 145.408 C 244.964 145.876,244.285 146.376,243.900 146.517 C 243.515 146.659,243.200 146.948,243.200 147.160 C 243.200 147.373,242.822 147.666,242.361 147.813 C 241.286 148.153,240.153 149.286,239.813 150.361 C 239.666 150.822,239.286 151.200,238.969 151.200 C 238.652 151.200,238.084 151.560,237.707 152.000 C 237.330 152.440,236.868 152.800,236.680 152.800 C 236.492 152.800,235.798 153.340,235.138 154.000 C 234.478 154.660,233.677 155.200,233.357 155.200 C 233.037 155.200,232.674 155.463,232.550 155.785 C 232.427 156.106,231.945 156.490,231.480 156.638 C 231.015 156.786,230.182 157.423,229.628 158.053 C 229.075 158.684,228.473 159.200,228.292 159.200 C 228.110 159.200,227.565 159.618,227.081 160.130 C 226.596 160.641,225.885 161.176,225.500 161.317 C 225.115 161.459,224.800 161.748,224.800 161.960 C 224.800 162.173,224.412 162.469,223.938 162.620 C 223.463 162.770,222.678 163.323,222.192 163.847 C 221.706 164.371,221.144 164.800,220.943 164.800 C 220.491 164.800,219.439 166.001,219.087 166.918 C 218.943 167.293,218.615 167.600,218.358 167.600 C 218.102 167.600,217.494 168.029,217.008 168.553 C 216.522 169.077,215.753 169.624,215.299 169.768 C 214.845 169.913,214.373 170.294,214.250 170.615 C 214.126 170.937,213.830 171.200,213.591 171.200 C 213.352 171.200,212.581 171.739,211.878 172.398 C 211.175 173.057,210.397 173.597,210.149 173.598 C 209.901 173.599,209.425 174.005,209.093 174.500 C 208.130 175.931,207.941 175.212,207.704 169.230 C 207.582 166.134,207.349 163.600,207.188 163.600 C 207.027 163.600,206.767 162.070,206.611 160.200 C 206.456 158.330,206.181 156.800,206.002 156.800 C 205.822 156.800,205.551 155.900,205.400 154.800 C 205.249 153.700,204.968 152.800,204.776 152.800 C 204.584 152.800,204.308 151.900,204.162 150.800 C 204.016 149.700,203.754 148.800,203.580 148.800 C 203.406 148.800,203.145 148.260,203.000 147.600 C 202.855 146.940,202.585 146.400,202.400 146.400 C 202.215 146.400,201.945 145.860,201.800 145.200 C 201.655 144.540,201.374 144.000,201.176 144.000 C 200.978 144.000,200.702 143.550,200.564 143.000 C 200.426 142.450,200.153 142.000,199.957 142.000 C 199.760 142.000,199.600 141.724,199.600 141.387 C 199.600 141.051,199.330 140.671,199.000 140.545 C 198.670 140.418,198.400 140.062,198.400 139.753 C 198.400 139.445,198.040 138.884,197.600 138.507 C 197.160 138.130,196.800 137.679,196.800 137.504 C 196.800 137.330,195.990 136.410,195.000 135.462 C 194.010 134.513,193.200 133.602,193.200 133.438 C 193.200 133.273,192.705 132.632,192.100 132.012 C 191.495 131.393,190.542 130.350,189.983 129.696 C 189.423 129.042,188.568 128.380,188.083 128.226 C 187.597 128.072,187.200 127.773,187.200 127.560 C 187.200 127.348,186.885 127.059,186.500 126.917 C 186.115 126.776,185.410 126.248,184.934 125.746 C 184.458 125.243,183.603 124.716,183.034 124.573 C 182.465 124.430,182.000 124.172,182.000 124.000 C 182.000 123.828,181.550 123.574,181.000 123.436 C 180.450 123.298,180.000 123.022,180.000 122.824 C 180.000 122.626,179.460 122.345,178.800 122.200 C 178.140 122.055,177.600 121.785,177.600 121.600 C 177.600 121.415,177.060 121.145,176.400 121.000 C 175.740 120.855,175.200 120.590,175.200 120.412 C 175.200 120.233,174.728 119.968,174.152 119.824 C 173.575 119.679,172.842 119.299,172.523 118.980 C 172.204 118.661,171.236 118.287,170.372 118.149 C 169.507 118.011,168.800 117.749,168.800 117.567 C 168.800 117.385,168.170 117.118,167.400 116.974 C 166.598 116.823,166.000 116.474,166.000 116.155 C 166.000 115.830,165.587 115.600,165.000 115.600 C 164.378 115.600,164.000 115.373,164.000 115.000 C 164.000 114.670,164.270 114.400,164.600 114.400 C 164.930 114.400,165.200 114.234,165.200 114.032 C 165.200 113.829,165.740 113.545,166.400 113.400 C 167.060 113.255,167.600 112.985,167.600 112.800 C 167.600 112.615,168.140 112.345,168.800 112.200 C 169.460 112.055,170.000 111.774,170.000 111.576 C 170.000 111.378,170.437 111.106,170.971 110.972 C 171.505 110.837,172.039 110.474,172.159 110.164 C 172.278 109.854,172.651 109.600,172.987 109.600 C 173.324 109.600,173.600 109.414,173.600 109.187 C 173.600 108.961,173.915 108.659,174.300 108.517 C 174.685 108.376,175.396 107.841,175.881 107.330 C 176.365 106.818,176.942 106.400,177.162 106.400 C 177.382 106.400,178.173 105.770,178.921 105.000 C 179.669 104.230,180.407 103.600,180.560 103.600 C 181.033 103.600,183.600 100.948,183.600 100.460 C 183.600 100.207,183.780 100.000,184.000 100.000 C 184.220 100.000,184.400 99.793,184.400 99.540 C 184.400 99.288,185.030 98.469,185.800 97.721 C 186.570 96.973,187.200 96.119,187.200 95.824 C 187.200 95.528,187.470 95.182,187.800 95.055 C 188.130 94.929,188.400 94.549,188.400 94.213 C 188.400 93.876,188.577 93.600,188.792 93.600 C 189.008 93.600,189.298 93.150,189.436 92.600 C 189.574 92.050,189.814 91.600,189.969 91.600 C 190.124 91.600,190.498 90.970,190.800 90.200 C 191.102 89.430,191.481 88.800,191.643 88.800 C 191.804 88.800,192.055 88.260,192.200 87.600 C 192.345 86.940,192.609 86.400,192.786 86.400 C 192.964 86.400,193.231 85.590,193.379 84.600 C 193.528 83.610,193.807 82.800,194.000 82.800 C 194.193 82.800,194.472 81.990,194.621 81.000 C 194.769 80.010,195.033 79.200,195.206 79.200 C 195.380 79.200,195.651 78.075,195.809 76.700 C 195.967 75.325,196.300 74.072,196.548 73.915 C 197.194 73.507,197.187 48.887,196.541 48.485 C 196.288 48.328,195.952 47.165,195.795 45.900 C 195.637 44.635,195.360 43.600,195.178 43.600 C 194.997 43.600,194.728 42.790,194.579 41.800 C 194.431 40.810,194.158 40.000,193.973 40.000 C 193.788 40.000,193.518 39.370,193.374 38.600 C 193.229 37.830,192.965 37.200,192.787 37.200 C 192.609 37.200,192.345 36.660,192.200 36.000 C 192.055 35.340,191.773 34.800,191.573 34.800 C 191.373 34.800,191.092 34.067,190.949 33.171 C 190.721 31.744,190.168 30.844,187.597 27.717 C 187.379 27.451,187.200 27.083,187.200 26.898 C 187.200 26.714,186.668 26.121,186.017 25.581 C 185.366 25.042,184.826 24.389,184.817 24.132 C 184.796 23.562,180.092 18.800,179.549 18.800 C 178.987 18.800,177.200 16.778,177.200 16.142 C 177.200 15.844,176.928 15.600,176.596 15.600 C 176.264 15.600,175.684 15.240,175.307 14.800 C 174.930 14.360,174.407 14.000,174.144 14.000 C 173.882 14.000,173.607 13.865,173.533 13.700 C 173.331 13.245,170.890 11.600,170.416 11.600 C 170.187 11.600,170.000 11.434,170.000 11.232 C 170.000 11.029,169.460 10.745,168.800 10.600 C 168.140 10.455,167.600 10.194,167.600 10.020 C 167.600 9.846,166.790 9.477,165.800 9.200 C 164.810 8.923,164.000 8.548,164.000 8.366 C 164.000 8.185,163.370 7.918,162.600 7.774 C 161.830 7.629,161.200 7.365,161.200 7.187 C 161.200 7.009,160.660 6.745,160.000 6.600 C 159.340 6.455,158.800 6.191,158.800 6.014 C 158.800 5.837,157.810 5.568,156.600 5.417 C 155.390 5.266,154.400 4.982,154.400 4.785 C 154.400 4.588,153.500 4.308,152.400 4.162 C 151.300 4.016,150.400 3.761,150.400 3.595 C 150.400 3.428,149.365 3.163,148.100 3.005 C 146.835 2.848,145.704 2.565,145.587 2.376 C 145.469 2.187,143.849 1.909,141.987 1.757 C 140.124 1.605,138.508 1.341,138.395 1.170 C 137.806 0.280,119.518 0.002,61.500 0.001 L 0.000 0.000 0.000 121.000 M108.800 55.143 C 108.800 55.331,110.641 55.612,112.892 55.767 C 115.142 55.922,117.082 56.210,117.204 56.406 C 117.325 56.602,118.184 56.884,119.112 57.032 C 120.040 57.181,120.800 57.445,120.800 57.619 C 120.800 57.794,121.340 58.055,122.000 58.200 C 122.660 58.345,123.200 58.610,123.200 58.788 C 123.200 58.967,123.675 59.232,124.255 59.378 C 124.835 59.524,125.775 60.173,126.344 60.821 C 126.913 61.470,127.542 62.000,127.742 62.000 C 128.265 62.000,129.600 63.624,129.600 64.261 C 129.600 64.558,129.777 64.800,129.992 64.800 C 130.208 64.800,130.498 65.250,130.636 65.800 C 130.774 66.350,131.036 66.800,131.219 66.800 C 131.402 66.800,131.672 67.610,131.821 68.600 C 131.969 69.590,132.250 70.400,132.445 70.400 C 132.640 70.400,132.800 72.560,132.800 75.200 C 132.800 77.840,132.636 80.000,132.435 80.000 C 132.234 80.000,131.949 80.720,131.800 81.600 C 131.651 82.480,131.385 83.200,131.208 83.200 C 131.031 83.200,130.769 83.669,130.625 84.243 C 130.347 85.350,125.610 90.400,124.850 90.400 C 124.602 90.400,124.400 90.566,124.400 90.768 C 124.400 90.971,123.860 91.255,123.200 91.400 C 122.540 91.545,122.000 91.821,122.000 92.014 C 122.000 92.206,121.325 92.488,120.500 92.640 C 119.675 92.791,118.900 93.068,118.778 93.255 C 118.656 93.441,117.666 93.713,116.578 93.858 C 115.490 94.004,114.472 94.320,114.315 94.562 C 114.114 94.870,106.447 95.038,88.515 95.128 L 63.000 95.257 63.107 75.028 L 63.214 54.800 86.007 54.800 C 98.543 54.800,108.800 54.954,108.800 55.143 M123.115 144.646 C 123.272 144.891,124.435 145.219,125.700 145.375 C 126.965 145.530,128.000 145.816,128.000 146.011 C 128.000 146.205,128.630 146.482,129.400 146.626 C 130.170 146.771,130.800 147.035,130.800 147.213 C 130.800 147.391,131.340 147.655,132.000 147.800 C 132.660 147.945,133.200 148.210,133.200 148.388 C 133.200 148.567,133.647 148.826,134.194 148.963 C 134.807 149.117,135.283 149.593,135.437 150.206 C 135.574 150.753,135.954 151.200,136.281 151.200 C 136.608 151.200,136.969 151.560,137.084 152.000 C 137.199 152.440,137.542 152.800,137.847 152.800 C 138.151 152.800,138.400 153.051,138.400 153.357 C 138.400 153.664,138.670 154.018,139.000 154.145 C 139.330 154.271,139.600 154.651,139.600 154.987 C 139.600 155.324,139.768 155.600,139.973 155.600 C 140.178 155.600,140.472 156.005,140.627 156.500 C 140.781 156.995,141.054 157.495,141.234 157.611 C 141.413 157.727,141.685 159.077,141.839 160.611 C 141.993 162.145,142.317 163.532,142.560 163.694 C 142.876 163.905,142.871 163.989,142.544 163.994 C 142.249 163.998,142.072 165.025,142.044 166.897 C 141.993 170.227,141.655 172.400,141.187 172.400 C 141.009 172.400,140.745 172.940,140.600 173.600 C 140.455 174.260,140.171 174.800,139.968 174.800 C 139.766 174.800,139.600 175.030,139.600 175.311 C 139.600 175.592,139.285 176.101,138.900 176.442 C 138.515 176.783,137.465 177.882,136.567 178.883 C 135.669 179.884,134.508 180.839,133.986 181.004 C 133.464 181.170,132.791 181.552,132.490 181.853 C 132.189 182.154,131.686 182.400,131.371 182.400 C 131.057 182.400,130.800 182.670,130.800 183.000 C 130.800 183.330,130.530 183.600,130.200 183.600 C 129.870 183.600,129.600 183.756,129.600 183.947 C 129.600 184.138,128.854 184.395,127.942 184.517 C 127.031 184.639,126.172 184.922,126.034 185.145 C 125.896 185.368,124.392 185.676,122.692 185.830 C 120.991 185.984,119.600 186.266,119.600 186.455 C 119.600 186.645,106.925 186.800,91.400 186.800 L 63.200 186.800 63.200 165.375 L 63.200 143.949 93.015 144.075 C 114.375 144.164,122.910 144.326,123.115 144.646 M271.836 159.000 C 271.698 159.550,271.332 160.000,271.024 160.000 C 270.716 160.000,269.653 160.810,268.663 161.800 C 267.673 162.790,266.732 163.600,266.572 163.600 C 266.107 163.600,263.853 166.097,263.232 167.300 C 262.920 167.905,262.445 168.400,262.176 168.400 C 261.908 168.400,260.682 169.390,259.453 170.600 C 258.223 171.810,257.062 172.800,256.873 172.800 C 256.683 172.800,255.248 174.060,253.683 175.600 C 252.119 177.140,250.720 178.400,250.576 178.400 C 250.126 178.400,246.000 182.689,246.000 183.157 C 246.000 183.400,245.824 183.600,245.608 183.600 C 245.392 183.600,243.887 184.950,242.264 186.600 C 240.641 188.250,239.192 189.600,239.045 189.600 C 238.771 189.600,236.746 191.355,234.776 193.300 C 234.163 193.905,233.535 194.400,233.381 194.400 C 232.931 194.400,228.000 199.509,228.000 199.976 C 228.000 200.209,227.829 200.400,227.619 200.400 C 227.410 200.400,226.627 201.030,225.879 201.800 C 225.131 202.570,224.384 203.200,224.218 203.200 C 224.053 203.200,222.670 204.460,221.145 206.000 C 219.620 207.540,218.190 208.800,217.967 208.800 C 217.744 208.800,216.662 209.700,215.562 210.800 C 214.462 211.900,213.390 212.800,213.181 212.800 C 212.971 212.800,212.800 213.050,212.800 213.357 C 212.800 213.663,212.395 214.018,211.900 214.146 C 211.405 214.275,210.554 215.059,210.008 215.890 C 208.788 217.748,207.510 219.184,207.068 219.193 C 206.885 219.197,205.656 220.280,204.336 221.600 C 203.016 222.920,201.779 224.000,201.588 224.000 C 201.396 224.000,200.156 225.080,198.832 226.400 C 197.508 227.720,196.253 228.800,196.044 228.800 C 195.442 228.800,192.000 232.401,192.000 233.032 C 192.000 233.344,191.822 233.600,191.603 233.600 C 191.385 233.600,190.014 234.770,188.555 236.200 C 187.097 237.630,185.746 238.800,185.554 238.800 C 185.362 238.800,184.151 239.880,182.863 241.200 C 181.576 242.520,180.391 243.600,180.230 243.600 C 180.070 243.600,179.432 244.095,178.814 244.700 C 175.949 247.502,174.436 248.800,174.036 248.800 C 173.796 248.800,173.600 249.028,173.600 249.307 C 173.600 249.898,170.150 253.600,169.600 253.600 C 169.395 253.600,167.980 254.860,166.455 256.400 C 164.930 257.940,163.543 259.200,163.373 259.200 C 163.202 259.200,162.329 259.966,161.431 260.902 C 160.534 261.838,159.170 263.040,158.400 263.573 C 156.734 264.726,155.600 265.835,155.600 266.312 C 155.600 266.795,152.098 270.400,151.629 270.400 C 151.417 270.400,150.358 271.300,149.276 272.400 C 148.193 273.500,147.178 274.400,147.021 274.400 C 146.864 274.400,145.656 275.480,144.336 276.800 C 143.016 278.120,141.776 279.200,141.581 279.200 C 141.115 279.200,138.312 281.988,137.800 282.961 C 137.580 283.379,137.060 283.919,136.644 284.161 C 136.229 284.402,134.672 285.815,133.185 287.300 C 131.699 288.785,130.350 290.000,130.188 290.000 C 130.026 290.000,129.007 290.900,127.924 292.000 C 126.842 293.100,125.789 294.000,125.586 294.000 C 125.383 294.000,124.243 294.990,123.052 296.200 C 121.861 297.410,120.707 298.400,120.487 298.400 C 120.267 298.400,119.974 298.850,119.836 299.400 C 119.698 299.950,119.412 300.400,119.201 300.400 C 118.990 300.400,117.843 301.390,116.652 302.600 C 115.461 303.810,114.350 304.800,114.182 304.800 C 114.015 304.800,112.824 305.880,111.537 307.200 C 110.249 308.520,109.027 309.600,108.822 309.600 C 108.616 309.600,107.290 310.770,105.874 312.200 C 104.458 313.630,103.174 314.800,103.021 314.800 C 102.654 314.800,101.600 315.863,101.600 316.234 C 101.600 316.611,98.554 319.600,98.170 319.600 C 98.010 319.600,96.824 320.680,95.537 322.000 C 94.249 323.320,93.027 324.400,92.822 324.400 C 92.616 324.400,91.290 325.570,89.874 327.000 C 88.458 328.430,87.173 329.600,87.018 329.600 C 86.564 329.600,83.200 333.096,83.200 333.568 C 83.200 333.806,83.014 334.000,82.786 334.000 C 82.559 334.000,81.208 335.170,79.785 336.600 C 78.362 338.030,77.029 339.200,76.823 339.200 C 76.617 339.200,75.290 340.370,73.874 341.800 C 72.458 343.230,71.165 344.400,71.001 344.400 C 70.837 344.400,68.214 346.920,65.172 350.000 C 62.130 353.080,59.449 355.600,59.214 355.600 C 58.979 355.600,58.010 356.410,57.062 357.400 C 56.113 358.390,55.126 359.200,54.869 359.200 C 54.611 359.200,54.400 359.393,54.400 359.629 C 54.400 360.117,53.407 361.200,52.960 361.200 C 52.797 361.200,51.887 362.010,50.938 363.000 C 49.990 363.990,49.030 364.800,48.807 364.800 C 48.583 364.800,48.400 365.070,48.400 365.400 C 48.400 365.730,48.130 366.000,47.800 366.000 C 47.078 366.000,47.047 366.426,47.667 367.787 C 48.323 369.228,50.190 368.602,50.910 366.700 C 51.056 366.315,51.385 366.000,51.642 366.000 C 51.898 366.000,52.506 365.571,52.992 365.047 C 53.478 364.523,54.263 363.970,54.738 363.820 C 55.212 363.669,55.600 363.378,55.600 363.173 C 55.600 362.968,55.830 362.800,56.111 362.800 C 56.392 362.800,57.075 362.284,57.628 361.653 C 58.182 361.023,59.015 360.386,59.480 360.238 C 59.945 360.090,60.427 359.706,60.550 359.385 C 60.674 359.063,60.985 358.800,61.242 358.800 C 61.498 358.800,62.125 358.350,62.635 357.800 C 63.145 357.250,63.710 356.800,63.892 356.800 C 64.074 356.800,64.530 356.440,64.907 356.000 C 65.284 355.560,65.864 355.200,66.196 355.200 C 66.528 355.200,66.800 355.016,66.800 354.791 C 66.800 354.567,67.295 354.162,67.900 353.891 C 68.505 353.621,69.360 353.027,69.800 352.570 C 70.240 352.114,70.915 351.624,71.300 351.483 C 71.685 351.341,72.000 351.027,72.000 350.784 C 72.000 350.224,72.794 349.433,73.700 349.090 C 74.085 348.944,74.400 348.639,74.400 348.413 C 74.400 348.186,74.656 348.000,74.969 348.000 C 75.282 348.000,76.078 347.460,76.738 346.800 C 77.398 346.140,78.092 345.600,78.280 345.600 C 78.468 345.600,78.930 345.240,79.307 344.800 C 79.684 344.360,80.234 344.000,80.528 344.000 C 80.823 344.000,81.306 343.550,81.600 343.000 C 81.894 342.450,82.377 342.000,82.672 342.000 C 82.966 342.000,83.516 341.640,83.893 341.200 C 84.270 340.760,84.742 340.400,84.943 340.400 C 85.144 340.400,85.706 339.971,86.192 339.447 C 86.678 338.923,87.447 338.376,87.901 338.232 C 88.355 338.087,88.827 337.706,88.950 337.385 C 89.074 337.063,89.423 336.800,89.725 336.800 C 90.028 336.800,90.602 336.440,91.000 336.000 C 91.398 335.560,91.889 335.200,92.091 335.200 C 92.594 335.200,93.600 334.153,93.600 333.629 C 93.600 333.393,93.830 333.200,94.111 333.200 C 94.392 333.200,95.075 332.684,95.628 332.053 C 96.182 331.423,97.015 330.786,97.480 330.638 C 97.945 330.490,98.427 330.106,98.550 329.785 C 98.674 329.463,98.969 329.200,99.207 329.200 C 99.444 329.200,100.035 328.782,100.519 328.270 C 101.004 327.759,101.715 327.224,102.100 327.083 C 102.485 326.941,102.800 326.652,102.800 326.440 C 102.800 326.227,103.188 325.931,103.662 325.780 C 104.137 325.630,104.902 325.109,105.362 324.623 C 105.823 324.138,106.515 323.624,106.900 323.483 C 107.285 323.341,107.600 323.052,107.600 322.840 C 107.600 322.627,107.988 322.331,108.462 322.180 C 108.937 322.030,109.722 321.477,110.208 320.953 C 110.694 320.429,111.256 320.000,111.457 320.000 C 111.658 320.000,112.130 319.640,112.507 319.200 C 112.884 318.760,113.468 318.400,113.806 318.400 C 114.144 318.400,114.593 317.945,114.804 317.390 C 115.015 316.834,115.506 316.265,115.894 316.125 C 116.625 315.861,116.930 315.624,119.080 313.645 C 119.783 312.997,120.712 312.355,121.143 312.218 C 121.574 312.081,122.027 311.706,122.150 311.385 C 122.274 311.063,122.585 310.800,122.842 310.800 C 123.098 310.800,123.706 310.371,124.192 309.847 C 124.678 309.323,125.447 308.776,125.901 308.632 C 126.355 308.487,126.827 308.106,126.950 307.785 C 127.074 307.463,127.385 307.200,127.642 307.200 C 127.898 307.200,128.506 306.771,128.992 306.247 C 129.478 305.723,130.247 305.176,130.701 305.032 C 131.155 304.887,131.627 304.506,131.750 304.185 C 131.874 303.863,132.185 303.600,132.442 303.600 C 132.698 303.600,133.325 303.150,133.835 302.600 C 134.345 302.050,134.946 301.600,135.172 301.600 C 135.397 301.600,135.876 301.150,136.237 300.600 C 136.597 300.050,137.060 299.600,137.265 299.600 C 137.470 299.600,138.035 299.182,138.519 298.670 C 139.004 298.159,139.715 297.624,140.100 297.483 C 140.485 297.341,140.800 297.052,140.800 296.840 C 140.800 296.627,141.188 296.331,141.662 296.180 C 142.137 296.030,142.902 295.509,143.362 295.023 C 143.823 294.538,144.515 294.024,144.900 293.883 C 145.285 293.741,145.600 293.452,145.600 293.240 C 145.600 293.027,145.988 292.731,146.462 292.580 C 146.937 292.430,147.702 291.909,148.162 291.423 C 148.623 290.938,149.315 290.424,149.700 290.283 C 150.085 290.141,150.400 289.852,150.400 289.640 C 150.400 289.427,150.769 289.137,151.220 288.994 C 151.944 288.764,152.566 288.267,155.234 285.789 C 155.582 285.465,156.000 285.200,156.162 285.200 C 156.592 285.200,157.404 284.308,157.710 283.500 C 157.856 283.115,158.251 282.800,158.587 282.800 C 158.924 282.800,159.200 282.650,159.200 282.468 C 159.200 282.285,159.695 281.882,160.300 281.573 C 160.905 281.264,161.777 280.625,162.238 280.152 C 162.698 279.680,163.447 279.176,163.901 279.032 C 164.355 278.887,164.827 278.506,164.950 278.185 C 165.074 277.863,165.385 277.600,165.642 277.600 C 165.898 277.600,166.506 277.171,166.992 276.647 C 167.478 276.123,168.247 275.576,168.701 275.432 C 169.155 275.287,169.627 274.906,169.750 274.585 C 169.874 274.263,170.185 274.000,170.442 274.000 C 170.698 274.000,171.293 273.585,171.763 273.078 C 172.233 272.571,172.929 272.036,173.309 271.890 C 173.689 271.744,174.000 271.452,174.000 271.240 C 174.000 271.027,174.388 270.731,174.862 270.580 C 175.337 270.430,176.122 269.877,176.608 269.353 C 177.094 268.829,177.656 268.400,177.857 268.400 C 178.317 268.400,179.600 266.924,179.600 266.395 C 179.600 266.178,179.830 266.000,180.111 266.000 C 180.392 266.000,180.930 265.640,181.307 265.200 C 181.684 264.760,182.264 264.400,182.596 264.400 C 182.928 264.400,183.200 264.246,183.200 264.058 C 183.200 263.870,184.010 263.204,185.000 262.578 C 185.990 261.952,186.800 261.296,186.800 261.120 C 186.800 260.944,187.010 260.800,187.266 260.800 C 187.741 260.800,187.977 260.618,190.331 258.434 C 191.063 257.755,191.814 257.200,192.000 257.200 C 192.186 257.200,192.847 256.695,193.469 256.077 C 194.091 255.459,194.915 254.835,195.300 254.689 C 195.685 254.544,196.000 254.239,196.000 254.013 C 196.000 253.786,196.272 253.600,196.604 253.600 C 196.936 253.600,197.516 253.240,197.893 252.800 C 198.270 252.360,198.716 252.000,198.884 252.000 C 199.422 252.000,200.800 250.641,200.800 250.111 C 200.800 249.830,201.004 249.600,201.254 249.600 C 201.504 249.600,202.106 249.171,202.592 248.647 C 203.078 248.123,203.847 247.576,204.301 247.432 C 204.755 247.287,205.227 246.906,205.350 246.585 C 205.474 246.263,205.851 246.000,206.187 246.000 C 206.524 246.000,206.800 245.850,206.800 245.668 C 206.800 245.485,207.294 245.080,207.897 244.768 C 208.500 244.455,209.376 243.795,209.843 243.300 C 210.310 242.805,210.856 242.400,211.057 242.400 C 211.258 242.400,211.730 242.040,212.107 241.600 C 213.030 240.522,213.999 240.573,214.004 241.700 C 214.006 242.195,214.004 277.726,214.000 320.657 C 213.996 363.588,214.103 399.003,214.239 399.357 C 214.490 400.011,277.687 400.402,279.360 399.760 C 280.119 399.469,280.361 316.800,279.603 316.800 C 279.382 316.800,279.200 316.260,279.200 315.600 L 279.200 314.400 334.200 314.400 L 389.200 314.400 389.200 286.200 C 389.200 261.400,389.128 258.000,388.600 258.000 C 388.270 258.000,388.000 257.820,388.000 257.600 C 388.000 257.380,387.730 257.200,387.400 257.200 C 387.070 257.200,386.800 257.380,386.800 257.600 C 386.800 258.307,280.479 258.136,279.771 257.429 C 279.108 256.765,279.023 255.757,279.600 255.400 C 279.857 255.241,280.000 248.663,280.000 236.976 L 280.000 218.800 340.000 218.800 L 400.000 218.800 400.000 188.400 L 400.000 158.000 336.043 158.000 L 272.087 158.000 271.836 159.000 " stroke="none" fill="#f42324" fill-rule="evenodd"></path><path id="path1" d="M398.150 24.185 C 398.027 24.506,397.545 24.890,397.080 25.038 C 396.615 25.186,395.782 25.823,395.228 26.453 C 394.675 27.084,394.001 27.600,393.731 27.600 C 393.461 27.600,393.096 27.842,392.920 28.137 C 392.744 28.432,392.105 28.993,391.500 29.383 C 390.895 29.773,390.400 30.271,390.400 30.489 C 390.400 30.711,390.886 30.786,391.500 30.659 C 392.105 30.534,392.375 30.530,392.100 30.649 C 391.825 30.769,391.600 31.032,391.600 31.233 C 391.600 31.958,392.385 31.575,393.721 30.200 C 394.469 29.430,395.200 28.800,395.346 28.800 C 395.966 28.800,399.600 24.971,399.600 24.317 C 399.600 23.458,398.469 23.355,398.150 24.185 M45.000 369.008 C 44.120 369.986,43.245 370.790,43.056 370.793 C 42.407 370.806,40.814 372.600,40.807 373.327 C 40.798 374.317,42.156 373.870,43.777 372.351 C 44.449 371.720,45.225 371.203,45.500 371.202 C 45.775 371.201,46.000 371.030,46.000 370.823 C 46.000 370.615,46.523 370.136,47.162 369.759 C 48.183 369.156,48.272 368.958,47.898 368.136 C 47.302 366.829,46.833 366.970,45.000 369.008 " stroke="none" fill="#d3252b" fill-rule="evenodd"></path></g></svg>